<svg xmlns="http://www.w3.org/2000/svg" xmlns:xlink="http://www.w3.org/1999/xlink" width="1080" zoomAndPan="magnify" viewBox="0 0 810 809.999993" height="1080" preserveAspectRatio="xMidYMid meet" version="1.0"><path fill="#000000" d="M 360.8125 46.996094 C 183.660156 66.644531 39.304688 209.703125 17.929688 386.71875 C 17.238281 392.273438 16.667969 397.84375 16.214844 403.425781 C 15.761719 409.007812 15.429688 414.597656 15.214844 420.191406 C 15 425.789062 14.910156 431.386719 14.933594 436.984375 C 14.960938 442.585938 15.109375 448.183594 15.375 453.777344 C 15.640625 459.371094 16.027344 464.957031 16.53125 470.53125 C 17.035156 476.109375 17.660156 481.671875 18.402344 487.222656 C 19.148438 492.773438 20.007812 498.304688 20.988281 503.820312 C 21.96875 509.332031 23.066406 514.820312 24.285156 520.289062 C 25.5 525.753906 26.832031 531.191406 28.28125 536.601562 C 29.726562 542.011719 31.292969 547.386719 32.96875 552.726562 C 34.648438 558.070312 36.441406 563.375 38.347656 568.640625 C 40.253906 573.902344 42.269531 579.125 44.398438 584.304688 C 46.527344 589.484375 48.765625 594.613281 51.117188 599.695312 C 53.464844 604.777344 55.921875 609.808594 58.484375 614.785156 C 61.050781 619.761719 63.71875 624.683594 66.496094 629.546875 C 69.269531 634.410156 72.148438 639.210938 75.128906 643.949219 C 78.109375 648.6875 81.191406 653.363281 84.371094 657.96875 C 87.550781 662.574219 90.828125 667.113281 94.203125 671.578125 C 97.578125 676.046875 101.050781 680.4375 104.613281 684.757812 C 108.175781 689.074219 111.828125 693.3125 115.574219 697.472656 C 119.320312 701.636719 123.152344 705.714844 127.070312 709.710938 C 130.988281 713.707031 134.992188 717.617188 139.078125 721.445312 C 143.167969 725.269531 147.332031 729.003906 151.578125 732.652344 C 155.828125 736.296875 160.148438 739.851562 164.546875 743.3125 C 168.945312 746.773438 173.417969 750.136719 177.960938 753.40625 C 182.503906 756.675781 187.117188 759.847656 191.792969 762.917969 C 196.472656 765.988281 201.214844 768.957031 206.019531 771.828125 C 210.828125 774.695312 215.691406 777.457031 220.617188 780.117188 C 225.542969 782.777344 230.519531 785.328125 235.554688 787.773438 C 240.585938 790.21875 245.671875 792.558594 250.804688 794.785156 C 255.9375 797.011719 261.117188 799.128906 266.34375 801.136719 C 271.566406 803.140625 276.832031 805.03125 282.136719 806.8125 C 301.6875 809.941406 307.9375 797.816406 307.9375 787.273438 L 307.9375 721.183594 C 199.726562 744.707031 176.691406 668.820312 176.691406 668.820312 C 158.773438 623.457031 133.328125 611.335938 133.328125 611.335938 C 97.765625 587.09375 136.09375 587.894531 136.09375 587.894531 C 175.144531 590.664062 195.855469 628.164062 195.855469 628.164062 C 229.84375 687.585938 287.253906 669.980469 309.515625 660.601562 C 313.027344 635.195312 323.339844 617.980469 334.125 608.210938 C 247.265625 598.441406 156.367188 564.8125 156.367188 415.886719 C 156.367188 372.492188 171.214844 337.703125 196.601562 309.945312 C 192.703125 300.175781 179.015625 259.519531 200.5 206.742188 C 200.5 206.742188 233.328125 196.167969 307.9375 246.621094 C 323.859375 242.332031 339.992188 239.105469 356.335938 236.941406 C 372.679688 234.777344 389.097656 233.695312 405.585938 233.695312 C 422.070312 233.695312 438.488281 234.777344 454.832031 236.941406 C 471.179688 239.105469 487.308594 242.332031 503.230469 246.621094 C 577.898438 196.167969 610.667969 206.742188 610.667969 206.742188 C 632.125 259.519531 618.464844 300.175781 614.566406 309.945312 C 639.953125 337.621094 654.804688 372.492188 654.804688 415.886719 C 654.804688 565.199219 563.378906 598.050781 476.296875 607.820312 C 490.34375 619.945312 503.230469 643.800781 503.230469 680.140625 L 503.230469 787.273438 C 503.230469 797.816406 509.480469 810.328125 529.417969 806.8125 C 535.082031 804.914062 540.699219 802.886719 546.265625 800.730469 C 551.835938 798.574219 557.355469 796.289062 562.820312 793.878906 C 568.285156 791.472656 573.691406 788.9375 579.042969 786.28125 C 584.390625 783.621094 589.675781 780.84375 594.898438 777.945312 C 600.121094 775.042969 605.273438 772.027344 610.355469 768.890625 C 615.441406 765.753906 620.449219 762.503906 625.382812 759.136719 C 630.320312 755.773438 635.175781 752.292969 639.949219 748.707031 C 644.726562 745.117188 649.417969 741.421875 654.023438 737.617188 C 658.628906 733.8125 663.148438 729.90625 667.574219 725.894531 C 672.003906 721.886719 676.335938 717.773438 680.574219 713.566406 C 684.816406 709.355469 688.957031 705.050781 692.996094 700.652344 C 697.039062 696.253906 700.980469 691.761719 704.816406 687.183594 C 708.652344 682.605469 712.382812 677.9375 716.007812 673.1875 C 719.628906 668.4375 723.140625 663.605469 726.542969 658.691406 C 729.945312 653.78125 733.234375 648.792969 736.40625 643.730469 C 739.582031 638.667969 742.636719 633.535156 745.578125 628.332031 C 748.515625 623.128906 751.332031 617.859375 754.03125 612.527344 C 756.726562 607.195312 759.300781 601.804688 761.753906 596.355469 C 764.203125 590.902344 766.527344 585.398438 768.726562 579.84375 C 770.925781 574.285156 772.996094 568.679688 774.9375 563.03125 C 776.878906 557.378906 778.691406 551.683594 780.371094 545.949219 C 782.054688 540.214844 783.601562 534.445312 785.019531 528.636719 C 786.4375 522.832031 787.722656 516.996094 788.871094 511.132812 C 790.019531 505.265625 791.035156 499.378906 791.917969 493.46875 C 792.796875 487.554688 793.542969 481.628906 794.152344 475.683594 C 794.761719 469.738281 795.234375 463.78125 795.570312 457.8125 C 795.90625 451.847656 796.105469 445.875 796.167969 439.898438 C 796.230469 433.921875 796.15625 427.945312 795.945312 421.972656 C 795.734375 416 795.386719 410.035156 794.902344 404.078125 C 794.421875 398.121094 793.800781 392.179688 793.042969 386.25 C 792.289062 380.320312 791.398438 374.414062 790.371094 368.523438 C 789.34375 362.636719 788.183594 356.777344 786.890625 350.941406 C 785.59375 345.105469 784.167969 339.304688 782.605469 333.535156 C 781.046875 327.765625 779.355469 322.035156 777.53125 316.34375 C 775.710938 310.652344 773.757812 305.007812 771.675781 299.40625 C 769.59375 293.804688 767.386719 288.25 765.050781 282.75 C 762.714844 277.25 760.257812 271.804688 757.671875 266.417969 C 755.085938 261.03125 752.378906 255.703125 749.550781 250.441406 C 746.722656 245.175781 743.777344 239.980469 740.710938 234.851562 C 737.644531 229.722656 734.460938 224.667969 731.164062 219.683594 C 727.863281 214.703125 724.453125 209.796875 720.933594 204.972656 C 717.410156 200.144531 713.777344 195.402344 710.039062 190.742188 C 706.300781 186.082031 702.457031 181.511719 698.507812 177.027344 C 694.558594 172.542969 690.507812 168.152344 686.359375 163.855469 C 682.207031 159.554688 677.960938 155.355469 673.621094 151.253906 C 669.277344 147.148438 664.84375 143.148438 660.320312 139.25 C 655.792969 135.347656 651.179688 131.554688 646.480469 127.867188 C 641.78125 124.175781 637 120.597656 632.140625 117.128906 C 627.277344 113.660156 622.335938 110.304688 617.320312 107.0625 C 612.300781 103.820312 607.214844 100.695312 602.054688 97.683594 C 596.894531 94.675781 591.667969 91.785156 586.375 89.015625 C 581.085938 86.246094 575.730469 83.601562 570.320312 81.074219 C 564.90625 78.550781 559.4375 76.152344 553.914062 73.878906 C 548.390625 71.605469 542.820312 69.460938 537.199219 67.441406 C 531.578125 65.425781 525.910156 63.535156 520.203125 61.777344 C 514.496094 60.019531 508.75 58.394531 502.96875 56.898438 C 497.1875 55.40625 491.375 54.042969 485.53125 52.816406 C 479.683594 51.585938 473.816406 50.496094 467.921875 49.535156 C 462.027344 48.578125 456.113281 47.753906 450.179688 47.066406 C 444.246094 46.378906 438.304688 45.828125 432.34375 45.410156 C 426.386719 44.996094 420.425781 44.71875 414.453125 44.574219 C 408.484375 44.433594 402.511719 44.429688 396.542969 44.5625 C 390.570312 44.695312 384.609375 44.960938 378.648438 45.367188 C 372.691406 45.773438 366.746094 46.316406 360.8125 46.996094 Z M 360.8125 46.996094 " fill-opacity="1" fill-rule="nonzero"/></svg>