<svg xmlns="http://www.w3.org/2000/svg" xmlns:xlink="http://www.w3.org/1999/xlink" width="1080" zoomAndPan="magnify" viewBox="0 0 810 809.999993" height="1080" preserveAspectRatio="xMidYMid meet" version="1.0"><defs><clipPath id="f354c769d1"><path d="M 3.492188 0 L 810 0 L 810 810 L 3.492188 810 Z M 3.492188 0 " clip-rule="nonzero"/></clipPath></defs><g clip-path="url(#f354c769d1)"><path fill="#000000" d="M 647.667969 0 L 169.316406 0 C 77.878906 0 3.492188 74.386719 3.492188 165.824219 L 3.492188 644.175781 C 3.492188 735.613281 77.878906 810 169.316406 810 L 647.667969 810 C 739.101562 810 813.492188 735.613281 813.492188 644.175781 L 813.492188 165.824219 C 813.492188 74.386719 739.101562 0 647.667969 0 Z M 765.84375 644.175781 C 765.84375 709.335938 712.828125 762.351562 647.667969 762.351562 L 169.316406 762.351562 C 104.152344 762.351562 51.136719 709.335938 51.136719 644.175781 L 51.136719 165.824219 C 51.136719 100.664062 104.152344 47.648438 169.316406 47.648438 L 647.667969 47.648438 C 712.828125 47.648438 765.84375 100.664062 765.84375 165.824219 Z M 765.84375 644.175781 " fill-opacity="1" fill-rule="nonzero"/></g><path fill="#000000" d="M 249.667969 321.816406 L 154.375 321.816406 C 141.214844 321.816406 130.550781 332.484375 130.550781 345.640625 L 130.550781 656.140625 C 130.550781 669.296875 141.214844 679.964844 154.375 679.964844 L 249.667969 679.964844 C 262.824219 679.964844 273.492188 669.296875 273.492188 656.140625 L 273.492188 345.640625 C 273.492188 332.484375 262.824219 321.816406 249.667969 321.816406 Z M 225.84375 632.316406 L 178.195312 632.316406 L 178.195312 369.464844 L 225.84375 369.464844 Z M 225.84375 632.316406 " fill-opacity="1" fill-rule="nonzero"/><path fill="#000000" d="M 464.078125 364.273438 L 464.078125 345.640625 C 464.078125 332.484375 453.414062 321.816406 440.257812 321.816406 L 344.960938 321.816406 C 331.804688 321.816406 321.136719 332.484375 321.136719 345.640625 L 321.136719 656.140625 C 321.136719 669.296875 331.804688 679.964844 344.960938 679.964844 L 440.257812 679.964844 C 453.414062 679.964844 464.078125 669.296875 464.078125 656.140625 L 464.078125 542.582031 C 464.078125 520.6875 481.890625 502.875 503.785156 502.875 C 525.679688 502.875 543.492188 520.6875 543.492188 542.582031 L 543.492188 656.140625 C 543.492188 669.296875 554.15625 679.964844 567.316406 679.964844 L 662.609375 679.964844 C 675.765625 679.964844 686.433594 669.296875 686.433594 656.140625 L 686.433594 542.582031 C 686.433594 426.226562 578.25 338.824219 464.078125 364.273438 Z M 638.785156 632.316406 L 591.136719 632.316406 L 591.136719 542.582031 C 591.136719 494.414062 551.953125 455.226562 503.785156 455.226562 C 455.617188 455.226562 416.433594 494.414062 416.433594 542.582031 L 416.433594 632.316406 L 368.785156 632.316406 L 368.785156 369.464844 L 416.433594 369.464844 L 416.433594 397.03125 C 416.433594 414.207031 434.089844 425.734375 449.816406 418.851562 C 538.148438 380.148438 638.785156 444.921875 638.785156 542.582031 Z M 638.785156 632.316406 " fill-opacity="1" fill-rule="nonzero"/><path fill="#000000" d="M 202.019531 130.035156 C 162.613281 130.035156 130.550781 162.097656 130.550781 201.507812 C 130.550781 240.917969 162.613281 272.976562 202.019531 272.976562 C 241.429688 272.976562 273.492188 240.917969 273.492188 201.507812 C 273.492188 162.097656 241.429688 130.035156 202.019531 130.035156 Z M 202.019531 225.332031 C 188.882812 225.332031 178.195312 214.644531 178.195312 201.507812 C 178.195312 188.371094 188.882812 177.683594 202.019531 177.683594 C 215.15625 177.683594 225.84375 188.371094 225.84375 201.507812 C 225.84375 214.644531 215.15625 225.332031 202.019531 225.332031 Z M 202.019531 225.332031 " fill-opacity="1" fill-rule="nonzero"/></svg>