<svg xmlns="http://www.w3.org/2000/svg" xmlns:xlink="http://www.w3.org/1999/xlink" width="500" zoomAndPan="magnify" viewBox="0 0 375 374.999991" height="500" preserveAspectRatio="xMidYMid meet" version="1.0"><defs><clipPath id="068684e92a"><path d="M 24 1 L 351.9375 1 L 351.9375 375 L 24 375 Z M 24 1 " clip-rule="nonzero"/></clipPath><clipPath id="8d6cacfd6d"><path d="M 51.941406 106 L 66 106 L 66 116 L 51.941406 116 Z M 51.941406 106 " clip-rule="nonzero"/></clipPath><clipPath id="6cd5b9e29b"><path d="M 106 51.941406 L 116 51.941406 L 116 66 L 106 66 Z M 106 51.941406 " clip-rule="nonzero"/></clipPath><clipPath id="21d24d25ef"><path d="M 78 187 L 274 187 L 274 322.691406 L 78 322.691406 Z M 78 187 " clip-rule="nonzero"/></clipPath><clipPath id="bae44ab611"><path d="M 182 78 L 322.691406 78 L 322.691406 274 L 182 274 Z M 182 78 " clip-rule="nonzero"/></clipPath></defs><g clip-path="url(#068684e92a)"><path fill="#000000" d="M 24.117188 103.722656 L 24.117188 272.769531 C 24.117188 279.054688 27.46875 284.90625 32.90625 288.050781 L 178.902344 372.621094 C 184.355469 375.777344 191.050781 375.777344 196.503906 372.621094 L 342.4375 288.082031 C 347.890625 284.890625 351.226562 279.085938 351.242188 272.800781 L 351.242188 103.722656 C 351.242188 97.4375 347.875 91.585938 342.421875 88.414062 L 196.519531 3.921875 C 191.066406 0.761719 184.339844 0.761719 178.917969 3.921875 L 178.886719 3.9375 L 32.890625 88.429688 C 27.4375 91.601562 24.101562 97.4375 24.117188 103.722656 Z M 24.117188 103.722656 " fill-opacity="1" fill-rule="nonzero"/></g><path fill="#ffffff" d="M 152.515625 187.5 L 152.515625 239.972656 C 152.515625 249.636719 160.34375 257.464844 170.007812 257.464844 L 239.972656 257.464844 C 249.636719 257.464844 257.464844 249.636719 257.464844 239.972656 L 257.464844 187.5 C 257.464844 177.835938 249.636719 170.007812 239.972656 170.007812 L 170.007812 170.007812 C 160.34375 170.007812 152.515625 177.835938 152.515625 187.5 Z M 248.71875 187.5 L 248.71875 239.972656 C 248.71875 244.785156 244.785156 248.71875 239.972656 248.71875 L 170.007812 248.71875 C 165.199219 248.71875 161.261719 244.785156 161.261719 239.972656 L 161.261719 187.5 C 161.261719 182.691406 165.199219 178.753906 170.007812 178.753906 L 239.972656 178.753906 C 244.785156 178.753906 248.71875 182.691406 248.71875 187.5 Z M 248.71875 187.5 " fill-opacity="1" fill-rule="nonzero"/><path fill="#ffffff" d="M 236.914062 224.667969 L 230.351562 224.667969 L 230.351562 202.804688 L 236.914062 202.804688 L 236.914062 194.058594 L 215.046875 194.058594 L 215.046875 202.804688 L 221.609375 202.804688 L 221.609375 224.667969 L 215.046875 224.667969 L 215.046875 233.414062 L 236.914062 233.414062 Z M 236.914062 224.667969 " fill-opacity="1" fill-rule="nonzero"/><path fill="#ffffff" d="M 183.957031 224.667969 L 195.414062 224.667969 L 197.339844 233.414062 L 206.304688 233.414062 L 198.300781 197.46875 C 197.863281 195.457031 196.070312 194.058594 194.015625 194.058594 L 185.269531 194.058594 C 183.214844 194.058594 181.464844 195.503906 180.984375 197.46875 L 172.980469 233.414062 L 181.945312 233.414062 L 183.871094 224.667969 Z M 188.8125 202.804688 L 190.5625 202.804688 L 193.492188 215.921875 L 185.925781 215.921875 L 188.855469 202.804688 Z M 188.8125 202.804688 " fill-opacity="1" fill-rule="nonzero"/><g clip-path="url(#8d6cacfd6d)"><path fill="#ffffff" d="M 51.941406 106.601562 L 65.0625 106.601562 L 65.0625 115.347656 L 51.941406 115.347656 Z M 51.941406 106.601562 " fill-opacity="1" fill-rule="nonzero"/></g><path fill="#ffffff" d="M 156.890625 106.601562 L 170.007812 106.601562 L 170.007812 115.347656 L 156.890625 115.347656 Z M 156.890625 106.601562 " fill-opacity="1" fill-rule="nonzero"/><g clip-path="url(#6cd5b9e29b)"><path fill="#ffffff" d="M 106.601562 51.941406 L 115.347656 51.941406 L 115.347656 65.0625 L 106.601562 65.0625 Z M 106.601562 51.941406 " fill-opacity="1" fill-rule="nonzero"/></g><path fill="#ffffff" d="M 66.121094 72.304688 L 72.304688 66.121094 L 81.582031 75.398438 L 75.398438 81.582031 Z M 66.121094 72.304688 " fill-opacity="1" fill-rule="nonzero"/><path fill="#ffffff" d="M 144.742188 146.523438 L 150.925781 140.339844 L 160.203125 149.617188 L 154.015625 155.800781 Z M 144.742188 146.523438 " fill-opacity="1" fill-rule="nonzero"/><path fill="#ffffff" d="M 140.355469 75.367188 L 149.632812 66.089844 L 155.816406 72.273438 L 146.539062 81.550781 Z M 140.355469 75.367188 " fill-opacity="1" fill-rule="nonzero"/><path fill="#ffffff" d="M 66.148438 149.675781 L 75.421875 140.398438 L 81.605469 146.582031 L 72.332031 155.859375 Z M 66.148438 149.675781 " fill-opacity="1" fill-rule="nonzero"/><path fill="#ffffff" d="M 93.484375 143.773438 L 93.484375 159.078125 C 93.484375 168.742188 101.3125 176.566406 110.976562 176.566406 C 120.640625 176.566406 128.46875 168.742188 128.46875 159.078125 L 128.46875 143.773438 C 140.492188 137.34375 148.144531 124.792969 148.144531 110.976562 C 148.144531 100.4375 143.640625 90.335938 135.769531 83.296875 C 127.898438 76.257812 117.316406 72.890625 106.777344 74.070312 C 89.988281 75.949219 76.257812 89.460938 74.113281 106.210938 C 72.144531 121.820312 79.886719 136.558594 93.484375 143.773438 Z M 110.976562 167.820312 C 107.738281 167.820312 104.941406 166.03125 103.453125 163.449219 L 118.496094 163.449219 C 116.964844 166.03125 114.210938 167.820312 110.976562 167.820312 Z M 119.722656 154.703125 L 102.230469 154.703125 L 102.230469 150.332031 L 119.722656 150.332031 Z M 82.769531 107.257812 C 84.390625 94.445312 94.882812 84.125 107.695312 82.726562 C 108.789062 82.597656 109.882812 82.550781 110.976562 82.550781 C 117.972656 82.550781 124.617188 85.089844 129.910156 89.8125 C 135.945312 95.191406 139.398438 102.929688 139.398438 110.976562 C 139.398438 122.257812 132.707031 132.488281 122.34375 137.039062 C 120.769531 137.738281 119.722656 139.3125 119.722656 141.0625 L 119.722656 141.628906 L 102.230469 141.628906 L 102.230469 141.0625 C 102.230469 139.3125 101.179688 137.738281 99.605469 137.039062 C 87.929688 131.921875 81.195312 119.984375 82.769531 107.300781 Z M 82.769531 107.257812 " fill-opacity="1" fill-rule="nonzero"/><g clip-path="url(#21d24d25ef)"><path fill="#ffffff" d="M 78.921875 187.019531 C 78.441406 191.523438 78.179688 196.070312 78.179688 200.617188 C 78.179688 268.132812 133.101562 323.054688 200.617188 323.054688 C 227.117188 323.054688 252.261719 314.75 273.425781 299.007812 L 268.222656 292.007812 C 248.585938 306.613281 225.238281 314.3125 200.660156 314.3125 C 137.957031 314.3125 86.96875 263.324219 86.96875 200.617188 C 86.96875 196.421875 87.1875 192.179688 87.667969 187.980469 L 78.96875 187.019531 Z M 78.921875 187.019531 " fill-opacity="1" fill-rule="nonzero"/></g><g clip-path="url(#bae44ab611)"><path fill="#ffffff" d="M 200.617188 78.179688 C 194.539062 78.179688 188.460938 78.617188 182.472656 79.492188 L 183.738281 88.148438 C 189.292969 87.320312 194.933594 86.925781 200.574219 86.925781 C 263.28125 86.925781 314.265625 137.914062 314.265625 200.617188 C 314.265625 225.191406 306.570312 248.585938 291.964844 268.179688 L 298.960938 273.382812 C 314.703125 252.261719 323.011719 227.074219 323.011719 200.574219 C 323.011719 133.058594 268.089844 78.136719 200.574219 78.136719 Z M 200.617188 78.179688 " fill-opacity="1" fill-rule="nonzero"/></g><path fill="#ffffff" d="M 277.972656 283.875 L 283.875 290.304688 C 286.105469 288.25 288.25 286.105469 290.304688 283.875 L 283.875 277.972656 C 281.996094 280.027344 280.027344 281.996094 277.972656 283.875 Z M 277.972656 283.875 " fill-opacity="1" fill-rule="nonzero"/><path fill="#ffffff" d="M 260.570312 130.652344 L 245.613281 130.652344 C 243.210938 130.652344 241.242188 132.621094 241.242188 135.027344 L 241.242188 138.175781 C 239.40625 138.785156 237.65625 139.488281 235.90625 140.359375 L 233.675781 138.132812 C 231.972656 136.425781 229.214844 136.425781 227.511719 138.132812 L 216.886719 148.757812 C 215.179688 150.460938 215.179688 153.21875 216.886719 154.921875 L 219.113281 157.152344 C 217.890625 159.558594 216.972656 161.960938 216.316406 164.457031 L 224.757812 166.730469 C 225.324219 164.671875 226.066406 162.707031 227.117188 160.738281 C 228.648438 157.894531 228.210938 154.355469 226.15625 151.863281 L 230.660156 147.359375 C 233.152344 149.414062 236.695312 149.851562 239.535156 148.363281 C 241.546875 147.3125 243.601562 146.527344 245.964844 145.914062 C 248.414062 145.171875 250.074219 142.984375 250.074219 140.449219 L 250.074219 139.355469 L 256.285156 139.355469 L 256.285156 140.359375 C 256.285156 143.070312 258.207031 145.433594 260.65625 145.957031 C 262.800781 146.527344 264.898438 147.3125 266.820312 148.363281 C 269.664062 149.894531 273.25 149.457031 275.699219 147.402344 L 280.203125 151.90625 C 278.148438 154.398438 277.710938 157.941406 279.195312 160.738281 C 280.027344 162.355469 280.726562 164.019531 281.253906 165.679688 C 282.257812 168.828125 284.96875 170.96875 288.207031 171.277344 L 288.207031 177.53125 C 285.011719 177.792969 282.257812 179.933594 281.207031 183.171875 C 280.769531 184.613281 280.160156 186.144531 279.242188 188.023438 C 277.710938 190.867188 278.148438 194.410156 280.203125 196.902344 L 275.699219 201.40625 C 273.207031 199.351562 269.664062 198.914062 266.867188 200.398438 C 265.25 201.230469 263.585938 201.929688 261.925781 202.453125 L 264.546875 210.808594 C 266.472656 210.195312 268.394531 209.40625 270.363281 208.445312 L 272.59375 210.675781 C 273.46875 211.550781 274.5625 211.945312 275.699219 211.945312 C 276.835938 211.945312 277.929688 211.507812 278.804688 210.675781 L 289.429688 200.050781 C 291.136719 198.34375 291.136719 195.589844 289.429688 193.882812 L 287.199219 191.652344 C 288.207031 189.640625 288.90625 187.894531 289.386719 186.320312 L 292.578125 186.320312 C 294.984375 186.320312 296.949219 184.351562 296.949219 181.945312 L 296.949219 166.992188 C 296.949219 164.585938 294.984375 162.617188 292.578125 162.617188 L 289.429688 162.617188 C 288.859375 160.871094 288.117188 159.078125 287.242188 157.285156 L 289.472656 155.054688 C 291.179688 153.347656 291.179688 150.59375 289.472656 148.886719 L 278.847656 138.261719 C 277.140625 136.558594 274.386719 136.558594 272.683594 138.261719 L 270.453125 140.492188 C 268.746094 139.617188 266.996094 138.917969 265.117188 138.304688 L 265.117188 135.15625 C 265.117188 132.753906 263.148438 130.785156 260.742188 130.785156 Z M 260.570312 130.652344 " fill-opacity="1" fill-rule="nonzero"/><path fill="#ffffff" d="M 267.566406 190.78125 C 272.289062 186.625 274.957031 180.632812 274.957031 174.382812 C 274.957031 162.3125 265.160156 152.515625 253.089844 152.515625 C 246.839844 152.515625 240.847656 155.230469 236.695312 159.90625 L 243.253906 165.679688 C 245.746094 162.835938 249.332031 161.21875 253.089844 161.21875 C 260.308594 161.21875 266.210938 167.121094 266.210938 174.335938 C 266.210938 178.097656 264.59375 181.683594 261.75 184.175781 L 267.523438 190.734375 Z M 267.566406 190.78125 " fill-opacity="1" fill-rule="nonzero"/><path fill="#ffffff" d="M 126.28125 242.902344 C 123.875 242.902344 121.90625 244.871094 121.90625 247.277344 L 121.90625 258.90625 C 121.90625 261.3125 123.875 263.28125 126.28125 263.28125 L 128.03125 263.28125 C 128.378906 264.328125 128.816406 265.335938 129.253906 266.296875 L 128.03125 267.523438 C 126.324219 269.226562 126.324219 271.980469 128.03125 273.6875 L 136.25 281.910156 C 137.957031 283.613281 140.710938 283.613281 142.417969 281.910156 L 143.640625 280.683594 C 144.601562 281.164062 145.652344 281.601562 146.65625 281.953125 L 146.65625 283.703125 C 146.65625 286.105469 148.625 288.074219 151.03125 288.074219 L 162.664062 288.074219 C 165.066406 288.074219 167.035156 286.105469 167.035156 283.703125 L 167.035156 281.953125 C 168.085938 281.601562 169.089844 281.164062 170.050781 280.726562 L 171.277344 281.953125 C 172.980469 283.65625 175.738281 283.65625 177.441406 281.953125 L 185.664062 273.730469 C 187.367188 272.027344 187.367188 269.269531 185.664062 267.566406 L 184.394531 266.296875 C 184.789062 265.464844 185.136719 264.59375 185.445312 263.71875 L 177.179688 260.832031 C 176.917969 261.617188 176.566406 262.40625 176.128906 263.238281 C 174.90625 265.554688 175.125 268.351562 176.480469 270.496094 L 174.207031 272.769531 C 172.0625 271.371094 169.222656 271.238281 166.859375 272.464844 C 165.8125 273.03125 164.585938 273.554688 163.316406 273.90625 C 160.78125 274.691406 158.945312 276.792969 158.421875 279.285156 L 155.230469 279.285156 C 154.703125 276.792969 152.867188 274.691406 150.242188 273.863281 C 149.0625 273.511719 147.839844 273.03125 146.703125 272.375 C 144.382812 271.152344 141.585938 271.328125 139.441406 272.726562 L 137.167969 270.453125 C 138.523438 268.308594 138.699219 265.464844 137.476562 263.105469 C 136.90625 262.054688 136.382812 260.832031 136.03125 259.5625 C 135.246094 257.027344 133.144531 255.191406 130.652344 254.664062 L 130.652344 251.605469 C 133.015625 251.515625 135.113281 249.898438 135.769531 247.539062 C 136.207031 245.832031 136.820312 244.347656 137.5625 242.902344 C 138.785156 240.585938 138.566406 237.785156 137.210938 235.644531 L 139.488281 233.371094 C 141.628906 234.769531 144.429688 234.945312 146.746094 233.71875 C 147.839844 233.152344 148.714844 232.757812 149.5 232.496094 L 146.746094 224.1875 C 145.785156 224.492188 144.777344 224.929688 143.683594 225.457031 L 142.417969 224.1875 C 140.710938 222.480469 137.957031 222.480469 136.25 224.1875 L 128.03125 232.410156 C 126.324219 234.113281 126.324219 236.867188 128.03125 238.574219 L 129.296875 239.84375 C 128.816406 240.804688 128.421875 241.808594 128.074219 242.859375 L 126.324219 242.859375 Z M 126.28125 242.902344 " fill-opacity="1" fill-rule="nonzero"/><path fill="#ffffff" d="M 144.644531 243.910156 C 142.636719 246.578125 141.585938 249.769531 141.585938 253.089844 C 141.585938 261.53125 148.449219 268.394531 156.890625 268.394531 C 160.214844 268.394531 163.40625 267.347656 166.074219 265.335938 L 160.824219 258.339844 C 159.6875 259.214844 158.332031 259.652344 156.890625 259.652344 C 153.261719 259.652344 150.332031 256.722656 150.332031 253.089844 C 150.332031 251.648438 150.769531 250.292969 151.644531 249.15625 Z M 144.644531 243.910156 " fill-opacity="1" fill-rule="nonzero"/></svg>