<svg xmlns="http://www.w3.org/2000/svg" xmlns:xlink="http://www.w3.org/1999/xlink" width="500" zoomAndPan="magnify" viewBox="0 0 375 374.999991" height="500" preserveAspectRatio="xMidYMid meet" version="1.0"><defs><clipPath id="914eb90425"><path d="M 27.234375 27.234375 L 137 27.234375 L 137 137 L 27.234375 137 Z M 27.234375 27.234375 " clip-rule="nonzero"/></clipPath><clipPath id="ad98110b4b"><path d="M 234 27.234375 L 343.734375 27.234375 L 343.734375 127 L 234 127 Z M 234 27.234375 " clip-rule="nonzero"/></clipPath><clipPath id="4e3719165f"><path d="M 254 254 L 343.734375 254 L 343.734375 343.734375 L 254 343.734375 Z M 254 254 " clip-rule="nonzero"/></clipPath><clipPath id="1e6deeae01"><path d="M 27.234375 244 L 127 244 L 127 343.734375 L 27.234375 343.734375 Z M 27.234375 244 " clip-rule="nonzero"/></clipPath></defs><path fill="#000000" d="M 269.554688 229.992188 L 269.554688 210.210938 C 269.554688 207.480469 267.339844 205.265625 264.609375 205.265625 L 249.773438 205.265625 L 249.773438 200.320312 L 264.609375 200.320312 C 267.339844 200.320312 269.554688 198.105469 269.554688 195.375 L 269.554688 175.59375 C 269.554688 172.863281 267.339844 170.648438 264.609375 170.648438 L 249.773438 170.648438 L 249.773438 165.703125 L 264.609375 165.703125 C 267.339844 165.703125 269.554688 163.488281 269.554688 160.757812 L 269.554688 140.976562 C 269.554688 138.246094 267.339844 136.03125 264.609375 136.03125 L 249.773438 136.03125 C 249.773438 127.847656 243.117188 121.195312 234.9375 121.195312 L 234.9375 106.359375 C 234.9375 103.628906 232.722656 101.414062 229.992188 101.414062 L 210.210938 101.414062 C 207.476562 101.414062 205.265625 103.628906 205.265625 106.359375 L 205.265625 121.195312 L 200.320312 121.195312 L 200.320312 106.359375 C 200.320312 103.628906 198.105469 101.414062 195.375 101.414062 L 175.59375 101.414062 C 172.859375 101.414062 170.648438 103.628906 170.648438 106.359375 L 170.648438 121.195312 L 165.703125 121.195312 L 165.703125 106.359375 C 165.703125 103.628906 163.488281 101.414062 160.757812 101.414062 L 140.976562 101.414062 C 138.242188 101.414062 136.03125 103.628906 136.03125 106.359375 L 136.03125 121.195312 C 127.847656 121.195312 121.195312 127.847656 121.195312 136.03125 L 106.359375 136.03125 C 103.625 136.03125 101.414062 138.246094 101.414062 140.976562 L 101.414062 160.757812 C 101.414062 163.488281 103.625 165.703125 106.359375 165.703125 L 121.195312 165.703125 L 121.195312 170.648438 L 106.359375 170.648438 C 103.625 170.648438 101.414062 172.863281 101.414062 175.59375 L 101.414062 195.375 C 101.414062 198.105469 103.625 200.320312 106.359375 200.320312 L 121.195312 200.320312 L 121.195312 205.265625 L 106.359375 205.265625 C 103.625 205.265625 101.414062 207.480469 101.414062 210.210938 L 101.414062 229.992188 C 101.414062 232.722656 103.625 234.9375 106.359375 234.9375 L 121.195312 234.9375 C 121.195312 243.117188 127.847656 249.773438 136.03125 249.773438 L 136.03125 264.609375 C 136.03125 267.339844 138.242188 269.554688 140.976562 269.554688 L 160.757812 269.554688 C 163.488281 269.554688 165.703125 267.339844 165.703125 264.609375 L 165.703125 249.773438 L 170.648438 249.773438 L 170.648438 264.609375 C 170.648438 267.339844 172.859375 269.554688 175.59375 269.554688 L 195.375 269.554688 C 198.105469 269.554688 200.320312 267.339844 200.320312 264.609375 L 200.320312 249.773438 L 205.265625 249.773438 L 205.265625 264.609375 C 205.265625 267.339844 207.476562 269.554688 210.210938 269.554688 L 229.992188 269.554688 C 232.722656 269.554688 234.9375 267.339844 234.9375 264.609375 L 234.9375 249.773438 C 243.117188 249.773438 249.773438 243.117188 249.773438 234.9375 L 264.609375 234.9375 C 267.339844 234.9375 269.554688 232.722656 269.554688 229.992188 Z M 259.664062 180.539062 L 259.664062 190.429688 L 249.773438 190.429688 L 249.773438 180.539062 Z M 259.664062 145.921875 L 259.664062 155.8125 L 249.773438 155.8125 L 249.773438 145.921875 Z M 215.15625 111.304688 L 225.046875 111.304688 L 225.046875 121.195312 L 215.15625 121.195312 Z M 180.539062 111.304688 L 190.429688 111.304688 L 190.429688 121.195312 L 180.539062 121.195312 Z M 145.921875 111.304688 L 155.8125 111.304688 L 155.8125 121.195312 L 145.921875 121.195312 Z M 111.304688 155.8125 L 111.304688 145.921875 L 121.195312 145.921875 L 121.195312 155.8125 Z M 111.304688 190.429688 L 111.304688 180.539062 L 121.195312 180.539062 L 121.195312 190.429688 Z M 111.304688 225.046875 L 111.304688 215.15625 L 121.195312 215.15625 L 121.195312 225.046875 Z M 155.8125 259.664062 L 145.921875 259.664062 L 145.921875 249.773438 L 155.8125 249.773438 Z M 190.429688 259.664062 L 180.539062 259.664062 L 180.539062 249.773438 L 190.429688 249.773438 Z M 225.046875 259.664062 L 215.15625 259.664062 L 215.15625 249.773438 L 225.046875 249.773438 Z M 239.882812 234.9375 C 239.882812 237.664062 237.664062 239.882812 234.9375 239.882812 L 136.03125 239.882812 C 133.300781 239.882812 131.085938 237.664062 131.085938 234.9375 L 131.085938 136.03125 C 131.085938 133.304688 133.300781 131.085938 136.03125 131.085938 L 234.9375 131.085938 C 237.664062 131.085938 239.882812 133.304688 239.882812 136.03125 Z M 259.664062 225.046875 L 249.773438 225.046875 L 249.773438 215.15625 L 259.664062 215.15625 Z M 259.664062 225.046875 " fill-opacity="1" fill-rule="nonzero"/><path fill="#000000" d="M 165.703125 165.703125 C 162.96875 165.703125 160.757812 167.917969 160.757812 170.648438 L 160.757812 183.984375 L 150.035156 167.902344 C 148.832031 166.089844 146.574219 165.277344 144.484375 165.914062 C 142.398438 166.542969 140.976562 168.46875 140.976562 170.648438 L 140.976562 200.320312 C 140.976562 203.050781 143.1875 205.265625 145.921875 205.265625 C 148.652344 205.265625 150.867188 203.050781 150.867188 200.320312 L 150.867188 186.980469 L 161.585938 203.0625 C 162.519531 204.460938 164.078125 205.265625 165.703125 205.265625 C 166.179688 205.265625 166.664062 205.195312 167.136719 205.050781 C 169.222656 204.421875 170.648438 202.496094 170.648438 200.320312 L 170.648438 170.648438 C 170.648438 167.917969 168.433594 165.703125 165.703125 165.703125 Z M 165.703125 165.703125 " fill-opacity="1" fill-rule="nonzero"/><path fill="#000000" d="M 195.375 195.375 L 185.484375 195.375 L 185.484375 170.648438 C 185.484375 167.917969 183.269531 165.703125 180.539062 165.703125 C 177.804688 165.703125 175.59375 167.917969 175.59375 170.648438 L 175.59375 200.320312 C 175.59375 203.050781 177.804688 205.265625 180.539062 205.265625 L 195.375 205.265625 C 198.105469 205.265625 200.320312 203.050781 200.320312 200.320312 C 200.320312 197.589844 198.105469 195.375 195.375 195.375 Z M 195.375 195.375 " fill-opacity="1" fill-rule="nonzero"/><path fill="#000000" d="M 215.15625 165.703125 L 210.210938 165.703125 C 207.476562 165.703125 205.265625 167.917969 205.265625 170.648438 L 205.265625 200.320312 C 205.265625 203.050781 207.476562 205.265625 210.210938 205.265625 C 212.941406 205.265625 215.15625 203.050781 215.15625 200.320312 L 215.15625 195.375 C 223.335938 195.375 229.992188 188.71875 229.992188 180.539062 C 229.992188 172.355469 223.335938 165.703125 215.15625 165.703125 Z M 215.15625 185.484375 L 215.15625 175.59375 C 217.882812 175.59375 220.101562 177.8125 220.101562 180.539062 C 220.101562 183.265625 217.882812 185.484375 215.15625 185.484375 Z M 215.15625 185.484375 " fill-opacity="1" fill-rule="nonzero"/><g clip-path="url(#914eb90425)"><path fill="#000000" d="M 31.566406 96.429688 L 42.582031 97.804688 L 35.765625 106.570312 C 34.234375 108.539062 34.410156 111.339844 36.171875 113.101562 L 50.160156 127.089844 C 51.925781 128.855469 54.726562 129.023438 56.691406 127.5 L 65.457031 120.683594 L 66.835938 131.699219 C 67.144531 134.171875 69.25 136.03125 71.742188 136.03125 L 91.523438 136.03125 C 94.015625 136.03125 96.121094 134.171875 96.429688 131.699219 L 97.804688 120.683594 L 106.570312 127.5 C 108.542969 129.023438 111.335938 128.855469 113.105469 127.089844 L 127.089844 113.101562 C 128.855469 111.339844 129.027344 108.539062 127.496094 106.570312 L 120.683594 97.804688 L 131.699219 96.429688 C 134.171875 96.121094 136.03125 94.015625 136.03125 91.523438 L 136.03125 71.742188 C 136.03125 69.246094 134.171875 67.144531 131.699219 66.835938 L 120.683594 65.457031 L 127.496094 56.691406 C 129.027344 54.722656 128.855469 51.921875 127.089844 50.160156 L 113.105469 36.171875 C 111.335938 34.40625 108.542969 34.238281 106.570312 35.765625 L 97.804688 42.582031 L 96.429688 31.566406 C 96.121094 29.089844 94.015625 27.234375 91.523438 27.234375 L 71.742188 27.234375 C 69.25 27.234375 67.144531 29.089844 66.835938 31.566406 L 65.457031 42.582031 L 56.691406 35.765625 C 54.726562 34.238281 51.925781 34.40625 50.160156 36.171875 L 36.171875 50.160156 C 34.410156 51.921875 34.234375 54.722656 35.765625 56.691406 L 42.582031 65.457031 L 31.566406 66.835938 C 29.09375 67.144531 27.234375 69.246094 27.234375 71.742188 L 27.234375 91.523438 C 27.234375 94.015625 29.09375 96.121094 31.566406 96.429688 Z M 37.125 76.105469 L 49.816406 74.519531 C 51.644531 74.289062 53.195312 73.0625 53.839844 71.332031 C 54.097656 70.628906 54.378906 69.933594 54.691406 69.257812 C 55.460938 67.582031 55.234375 65.613281 54.097656 64.160156 L 46.25 54.066406 L 54.066406 46.253906 L 64.160156 54.105469 C 65.617188 55.238281 67.597656 55.472656 69.273438 54.6875 C 69.945312 54.375 70.628906 54.097656 71.332031 53.839844 C 73.058594 53.199219 74.289062 51.644531 74.519531 49.816406 L 76.105469 37.125 L 87.15625 37.125 L 88.746094 49.816406 C 88.972656 51.644531 90.203125 53.199219 91.933594 53.839844 C 92.632812 54.097656 93.320312 54.375 93.988281 54.6875 C 95.664062 55.472656 97.640625 55.238281 99.105469 54.105469 L 109.199219 46.253906 L 117.011719 54.066406 L 109.164062 64.160156 C 108.027344 65.613281 107.800781 67.582031 108.570312 69.257812 C 108.882812 69.933594 109.164062 70.628906 109.425781 71.332031 C 110.066406 73.0625 111.617188 74.289062 113.449219 74.519531 L 126.140625 76.105469 L 126.140625 87.15625 L 113.449219 88.742188 C 111.617188 88.972656 110.066406 90.203125 109.425781 91.929688 C 109.164062 92.636719 108.882812 93.332031 108.570312 94.007812 C 107.800781 95.683594 108.027344 97.648438 109.164062 99.105469 L 117.011719 109.195312 L 109.199219 117.007812 L 99.105469 109.160156 C 97.640625 108.023438 95.664062 107.796875 93.988281 108.578125 C 93.320312 108.886719 92.632812 109.164062 91.933594 109.425781 C 90.203125 110.066406 88.972656 111.617188 88.746094 113.449219 L 87.15625 126.140625 L 76.105469 126.140625 L 74.519531 113.449219 C 74.289062 111.617188 73.058594 110.066406 71.332031 109.425781 C 70.628906 109.164062 69.945312 108.886719 69.273438 108.578125 C 67.597656 107.796875 65.617188 108.023438 64.160156 109.160156 L 54.066406 117.007812 L 46.25 109.195312 L 54.097656 99.105469 C 55.234375 97.648438 55.460938 95.683594 54.691406 94.007812 C 54.378906 93.332031 54.097656 92.636719 53.839844 91.929688 C 53.195312 90.203125 51.644531 88.972656 49.816406 88.742188 L 37.125 87.15625 Z M 37.125 76.105469 " fill-opacity="1" fill-rule="nonzero"/></g><path fill="#000000" d="M 81.632812 106.359375 C 95.265625 106.359375 106.359375 95.265625 106.359375 81.632812 C 106.359375 68 95.265625 56.90625 81.632812 56.90625 C 68 56.90625 56.90625 68 56.90625 81.632812 C 56.90625 95.265625 68 106.359375 81.632812 106.359375 Z M 81.632812 66.796875 C 89.8125 66.796875 96.46875 73.449219 96.46875 81.632812 C 96.46875 89.8125 89.8125 96.46875 81.632812 96.46875 C 73.449219 96.46875 66.796875 89.8125 66.796875 81.632812 C 66.796875 73.449219 73.449219 66.796875 81.632812 66.796875 Z M 81.632812 66.796875 " fill-opacity="1" fill-rule="nonzero"/><g clip-path="url(#ad98110b4b)"><path fill="#000000" d="M 256.253906 107.066406 L 250.292969 118.980469 C 249.375 120.816406 249.691406 123.03125 251.074219 124.542969 C 252.03125 125.582031 253.359375 126.140625 254.71875 126.140625 C 255.335938 126.140625 255.957031 126.023438 256.550781 125.785156 L 281.613281 115.761719 C 284.335938 116.089844 286.871094 116.25 289.335938 116.25 C 319.332031 116.25 343.734375 96.28125 343.734375 71.742188 C 343.734375 47.199219 319.332031 27.234375 289.335938 27.234375 C 259.339844 27.234375 234.9375 47.199219 234.9375 71.742188 C 234.9375 85.757812 242.816406 98.675781 256.253906 107.066406 Z M 289.335938 37.125 C 313.878906 37.125 333.84375 52.652344 333.84375 71.742188 C 333.84375 90.828125 313.878906 106.359375 289.335938 106.359375 C 286.933594 106.359375 284.414062 106.175781 281.632812 105.796875 C 280.777344 105.671875 279.921875 105.785156 279.128906 106.101562 L 264.960938 111.773438 L 267.203125 107.289062 C 268.414062 104.863281 267.441406 101.910156 265.027344 100.675781 C 252.378906 94.210938 244.828125 83.398438 244.828125 71.742188 C 244.828125 52.652344 264.792969 37.125 289.335938 37.125 Z M 289.335938 37.125 " fill-opacity="1" fill-rule="nonzero"/></g><g clip-path="url(#4e3719165f)"><path fill="#000000" d="M 338.789062 333.84375 L 264.609375 333.84375 L 264.609375 259.664062 C 264.609375 256.933594 262.394531 254.71875 259.664062 254.71875 C 256.929688 254.71875 254.71875 256.933594 254.71875 259.664062 L 254.71875 338.789062 C 254.71875 341.519531 256.929688 343.734375 259.664062 343.734375 L 338.789062 343.734375 C 341.519531 343.734375 343.734375 341.519531 343.734375 338.789062 C 343.734375 336.058594 341.519531 333.84375 338.789062 333.84375 Z M 338.789062 333.84375 " fill-opacity="1" fill-rule="nonzero"/></g><path fill="#000000" d="M 328.898438 304.171875 C 331.628906 304.171875 333.84375 301.957031 333.84375 299.226562 L 333.84375 284.390625 C 333.84375 283.746094 333.710938 283.105469 333.460938 282.5 C 332.960938 281.289062 331.996094 280.328125 330.785156 279.824219 C 330.183594 279.574219 329.539062 279.445312 328.898438 279.445312 L 314.0625 279.445312 C 311.328125 279.445312 309.117188 281.660156 309.117188 284.390625 C 309.117188 287.121094 311.328125 289.335938 314.0625 289.335938 L 316.957031 289.335938 L 307.777344 298.511719 L 295.84375 294.535156 C 294.0625 293.933594 292.105469 294.40625 290.785156 295.730469 L 275.949219 310.566406 C 274.015625 312.496094 274.015625 315.625 275.949219 317.558594 C 276.914062 318.523438 278.179688 319.007812 279.445312 319.007812 C 280.710938 319.007812 281.976562 318.523438 282.941406 317.558594 L 295.617188 304.882812 L 307.550781 308.863281 C 309.332031 309.453125 311.289062 308.988281 312.613281 307.667969 L 323.953125 296.328125 L 323.953125 299.226562 C 323.953125 301.957031 326.164062 304.171875 328.898438 304.171875 Z M 328.898438 304.171875 " fill-opacity="1" fill-rule="nonzero"/><path fill="#000000" d="M 272.761719 91.207031 C 275.316406 92.148438 278.167969 90.871094 279.128906 88.3125 L 281.636719 81.632812 L 297.035156 81.632812 L 299.539062 88.3125 C 300.28125 90.296875 302.171875 91.523438 304.171875 91.523438 C 304.75 91.523438 305.335938 91.421875 305.910156 91.207031 C 308.464844 90.246094 309.757812 87.398438 308.800781 84.839844 L 293.964844 45.277344 C 293.242188 43.347656 291.398438 42.070312 289.335938 42.070312 C 287.273438 42.070312 285.425781 43.347656 284.703125 45.277344 L 269.867188 84.839844 C 268.910156 87.398438 270.207031 90.246094 272.761719 91.207031 Z M 289.335938 61.097656 L 293.324219 71.742188 L 285.34375 71.742188 Z M 289.335938 61.097656 " fill-opacity="1" fill-rule="nonzero"/><g clip-path="url(#1e6deeae01)"><path fill="#000000" d="M 76.6875 244.828125 C 49.417969 244.828125 27.234375 267.011719 27.234375 294.28125 C 27.234375 321.550781 49.417969 343.734375 76.6875 343.734375 C 103.953125 343.734375 126.140625 321.550781 126.140625 294.28125 C 126.140625 267.011719 103.953125 244.828125 76.6875 244.828125 Z M 110.953125 274.59375 C 108.8125 275.242188 106.652344 275.863281 104.390625 276.382812 C 103.164062 270.976562 101.402344 266.054688 99.191406 261.785156 C 104 265.125 108.019531 269.507812 110.953125 274.59375 Z M 116.25 294.28125 C 116.25 297.925781 115.714844 301.441406 114.785156 304.792969 C 111.925781 303.898438 108.988281 303.09375 105.941406 302.414062 C 106.191406 299.765625 106.359375 297.0625 106.359375 294.28125 C 106.359375 291.496094 106.191406 288.792969 105.941406 286.148438 C 108.988281 285.464844 111.925781 284.664062 114.785156 283.765625 C 115.714844 287.121094 116.25 290.636719 116.25 294.28125 Z M 37.125 294.28125 C 37.125 290.636719 37.660156 287.121094 38.585938 283.765625 C 41.445312 284.664062 44.382812 285.464844 47.433594 286.148438 C 47.179688 288.792969 47.015625 291.496094 47.015625 294.28125 C 47.015625 297.0625 47.179688 299.765625 47.433594 302.414062 C 44.386719 303.09375 41.449219 303.898438 38.585938 304.792969 C 37.660156 301.441406 37.125 297.925781 37.125 294.28125 Z M 56.90625 294.28125 C 56.90625 292.089844 57.023438 289.984375 57.199219 287.929688 C 61.925781 288.59375 66.792969 288.976562 71.742188 289.148438 L 71.742188 299.414062 C 66.792969 299.582031 61.925781 299.964844 57.199219 300.632812 C 57.023438 298.574219 56.90625 296.46875 56.90625 294.28125 Z M 81.632812 256.1875 C 87.007812 259.285156 92.070312 267.167969 94.664062 278.160156 C 90.433594 278.75 86.074219 279.097656 81.632812 279.257812 Z M 71.742188 256.1875 L 71.742188 279.257812 C 67.300781 279.097656 62.9375 278.75 58.707031 278.160156 C 61.300781 267.167969 66.367188 259.285156 71.742188 256.1875 Z M 71.742188 309.300781 L 71.742188 332.371094 C 66.367188 329.273438 61.300781 321.390625 58.707031 310.402344 C 62.9375 309.808594 67.300781 309.464844 71.742188 309.300781 Z M 81.632812 332.371094 L 81.632812 309.300781 C 86.074219 309.464844 90.433594 309.808594 94.664062 310.402344 C 92.070312 321.390625 87.007812 329.273438 81.632812 332.371094 Z M 81.632812 299.414062 L 81.632812 289.148438 C 86.582031 288.976562 91.449219 288.59375 96.171875 287.929688 C 96.347656 289.984375 96.46875 292.089844 96.46875 294.28125 C 96.46875 296.46875 96.347656 298.574219 96.171875 300.632812 C 91.449219 299.964844 86.582031 299.582031 81.632812 299.414062 Z M 54.179688 261.785156 C 51.96875 266.054688 50.207031 270.976562 48.980469 276.382812 C 46.722656 275.863281 44.558594 275.242188 42.417969 274.59375 C 45.351562 269.507812 49.371094 265.125 54.179688 261.785156 Z M 42.417969 313.964844 C 44.558594 313.316406 46.722656 312.695312 48.980469 312.175781 C 50.207031 317.585938 51.96875 322.507812 54.179688 326.777344 C 49.371094 323.433594 45.351562 319.054688 42.417969 313.964844 Z M 99.191406 326.777344 C 101.402344 322.507812 103.164062 317.585938 104.390625 312.175781 C 106.652344 312.695312 108.8125 313.316406 110.953125 313.964844 C 108.019531 319.054688 104 323.433594 99.191406 326.777344 Z M 99.191406 326.777344 " fill-opacity="1" fill-rule="nonzero"/></g><path fill="#000000" d="M 150.867188 56.90625 L 160.757812 56.90625 L 160.757812 66.796875 L 150.867188 66.796875 Z M 150.867188 56.90625 " fill-opacity="1" fill-rule="nonzero"/><path fill="#000000" d="M 170.648438 56.90625 L 180.539062 56.90625 L 180.539062 66.796875 L 170.648438 66.796875 Z M 170.648438 56.90625 " fill-opacity="1" fill-rule="nonzero"/><path fill="#000000" d="M 190.429688 56.90625 L 200.320312 56.90625 L 200.320312 66.796875 L 190.429688 66.796875 Z M 190.429688 56.90625 " fill-opacity="1" fill-rule="nonzero"/><path fill="#000000" d="M 210.210938 56.90625 L 220.101562 56.90625 L 220.101562 66.796875 L 210.210938 66.796875 Z M 210.210938 56.90625 " fill-opacity="1" fill-rule="nonzero"/><path fill="#000000" d="M 150.867188 304.171875 L 160.757812 304.171875 L 160.757812 314.0625 L 150.867188 314.0625 Z M 150.867188 304.171875 " fill-opacity="1" fill-rule="nonzero"/><path fill="#000000" d="M 170.648438 304.171875 L 180.539062 304.171875 L 180.539062 314.0625 L 170.648438 314.0625 Z M 170.648438 304.171875 " fill-opacity="1" fill-rule="nonzero"/><path fill="#000000" d="M 190.429688 304.171875 L 200.320312 304.171875 L 200.320312 314.0625 L 190.429688 314.0625 Z M 190.429688 304.171875 " fill-opacity="1" fill-rule="nonzero"/><path fill="#000000" d="M 210.210938 304.171875 L 220.101562 304.171875 L 220.101562 314.0625 L 210.210938 314.0625 Z M 210.210938 304.171875 " fill-opacity="1" fill-rule="nonzero"/><path fill="#000000" d="M 304.171875 150.867188 L 314.0625 150.867188 L 314.0625 160.757812 L 304.171875 160.757812 Z M 304.171875 150.867188 " fill-opacity="1" fill-rule="nonzero"/><path fill="#000000" d="M 304.171875 170.648438 L 314.0625 170.648438 L 314.0625 180.539062 L 304.171875 180.539062 Z M 304.171875 170.648438 " fill-opacity="1" fill-rule="nonzero"/><path fill="#000000" d="M 304.171875 190.429688 L 314.0625 190.429688 L 314.0625 200.320312 L 304.171875 200.320312 Z M 304.171875 190.429688 " fill-opacity="1" fill-rule="nonzero"/><path fill="#000000" d="M 304.171875 210.210938 L 314.0625 210.210938 L 314.0625 220.101562 L 304.171875 220.101562 Z M 304.171875 210.210938 " fill-opacity="1" fill-rule="nonzero"/><path fill="#000000" d="M 56.90625 150.867188 L 66.796875 150.867188 L 66.796875 160.757812 L 56.90625 160.757812 Z M 56.90625 150.867188 " fill-opacity="1" fill-rule="nonzero"/><path fill="#000000" d="M 56.90625 170.648438 L 66.796875 170.648438 L 66.796875 180.539062 L 56.90625 180.539062 Z M 56.90625 170.648438 " fill-opacity="1" fill-rule="nonzero"/><path fill="#000000" d="M 56.90625 190.429688 L 66.796875 190.429688 L 66.796875 200.320312 L 56.90625 200.320312 Z M 56.90625 190.429688 " fill-opacity="1" fill-rule="nonzero"/><path fill="#000000" d="M 56.90625 210.210938 L 66.796875 210.210938 L 66.796875 220.101562 L 56.90625 220.101562 Z M 56.90625 210.210938 " fill-opacity="1" fill-rule="nonzero"/></svg>