<svg xmlns="http://www.w3.org/2000/svg" xmlns:xlink="http://www.w3.org/1999/xlink" width="500" zoomAndPan="magnify" viewBox="0 0 375 374.999991" height="500" preserveAspectRatio="xMidYMid meet" version="1.0"><defs><clipPath id="e271123c86"><path d="M 24 1 L 351.9375 1 L 351.9375 375 L 24 375 Z M 24 1 " clip-rule="nonzero"/></clipPath><clipPath id="8300220825"><path d="M 25 141.5625 L 281 141.5625 L 281 233.8125 L 25 233.8125 Z M 25 141.5625 " clip-rule="nonzero"/></clipPath></defs><g clip-path="url(#e271123c86)"><path fill="#000000" d="M 24.117188 103.722656 L 24.117188 272.769531 C 24.117188 279.054688 27.46875 284.90625 32.90625 288.050781 L 178.902344 372.621094 C 184.355469 375.777344 191.050781 375.777344 196.503906 372.621094 L 342.4375 288.082031 C 347.890625 284.890625 351.226562 279.085938 351.242188 272.800781 L 351.242188 103.722656 C 351.242188 97.4375 347.875 91.585938 342.421875 88.414062 L 196.519531 3.921875 C 191.066406 0.761719 184.339844 0.761719 178.917969 3.921875 L 178.886719 3.9375 L 32.890625 88.429688 C 27.4375 91.601562 24.101562 97.4375 24.117188 103.722656 Z M 24.117188 103.722656 " fill-opacity="1" fill-rule="nonzero"/></g><path fill="#83cd29" d="M 323.71875 174.082031 C 322.929688 174.082031 322.160156 174.246094 321.480469 174.628906 L 299.964844 187.058594 C 298.570312 187.859375 297.722656 189.375 297.722656 190.984375 L 297.722656 215.792969 C 297.722656 217.402344 298.570312 218.917969 299.964844 219.722656 L 305.582031 222.960938 C 308.3125 224.304688 309.320312 224.285156 310.5625 224.285156 C 314.605469 224.285156 316.910156 221.832031 316.910156 217.566406 L 316.910156 193.09375 C 316.910156 192.746094 316.613281 192.5 316.273438 192.5 L 313.578125 192.5 C 313.230469 192.5 312.9375 192.753906 312.9375 193.09375 L 312.9375 217.578125 C 312.9375 219.46875 310.96875 221.371094 307.777344 219.773438 L 301.933594 216.347656 C 301.726562 216.234375 301.570312 216.027344 301.570312 215.796875 L 301.570312 190.992188 C 301.570312 190.757812 301.726562 190.515625 301.933594 190.398438 L 323.40625 178.015625 C 323.609375 177.898438 323.847656 177.898438 324.046875 178.015625 L 345.515625 190.398438 C 345.722656 190.519531 345.882812 190.75 345.882812 190.992188 L 345.882812 215.796875 C 345.882812 216.035156 345.765625 216.277344 345.5625 216.390625 L 324.046875 228.773438 C 323.855469 228.882812 323.601562 228.882812 323.40625 228.773438 L 317.878906 225.484375 C 317.714844 225.386719 317.488281 225.394531 317.332031 225.484375 C 315.804688 226.347656 315.519531 226.449219 314.085938 226.945312 C 313.734375 227.070312 313.199219 227.257812 314.269531 227.859375 L 321.488281 232.113281 C 322.175781 232.511719 322.941406 232.707031 323.726562 232.707031 C 324.523438 232.707031 325.277344 232.515625 325.964844 232.113281 L 347.484375 219.734375 C 348.875 218.921875 349.722656 217.414062 349.722656 215.804688 L 349.722656 190.996094 C 349.722656 189.386719 348.875 187.875 347.484375 187.066406 L 325.964844 174.640625 C 325.292969 174.257812 324.519531 174.09375 323.726562 174.09375 Z M 329.476562 191.808594 C 323.347656 191.808594 319.699219 194.417969 319.699219 198.753906 C 319.699219 203.453125 323.320312 204.75 329.203125 205.332031 C 336.238281 206.019531 336.785156 207.054688 336.785156 208.4375 C 336.785156 210.839844 334.871094 211.863281 330.34375 211.863281 C 324.65625 211.863281 323.40625 210.445312 322.988281 207.609375 C 322.941406 207.304688 322.707031 207.0625 322.394531 207.0625 L 319.601562 207.0625 C 319.425781 207.066406 319.277344 207.128906 319.152344 207.253906 C 319.03125 207.378906 318.964844 207.527344 318.960938 207.703125 C 318.960938 211.324219 320.933594 215.605469 330.339844 215.605469 C 337.144531 215.605469 341.074219 212.9375 341.074219 208.25 C 341.074219 203.613281 337.902344 202.363281 331.296875 201.488281 C 324.628906 200.597656 323.988281 200.171875 323.988281 198.609375 C 323.988281 197.320312 324.527344 195.59375 329.46875 195.59375 C 333.882812 195.59375 335.515625 196.546875 336.1875 199.523438 C 336.246094 199.800781 336.492188 200.03125 336.78125 200.03125 L 339.574219 200.03125 C 339.746094 200.03125 339.910156 199.925781 340.03125 199.800781 C 340.148438 199.667969 340.230469 199.523438 340.214844 199.34375 C 339.78125 194.21875 336.363281 191.804688 329.476562 191.804688 Z M 329.476562 191.808594 " fill-opacity="1" fill-rule="nonzero"/><g clip-path="url(#8300220825)"><path fill="#ffffff" d="M 197.21875 141.5625 C 196.972656 141.5625 196.746094 141.625 196.535156 141.746094 C 196.078125 142.011719 195.851562 142.40625 195.847656 142.933594 L 195.847656 177.882812 C 195.847656 178.226562 195.6875 178.53125 195.390625 178.703125 C 195.070312 178.890625 194.753906 178.890625 194.433594 178.703125 L 188.722656 175.414062 C 188.296875 175.171875 187.839844 175.046875 187.351562 175.046875 C 186.859375 175.046875 186.40625 175.171875 185.980469 175.414062 L 163.1875 188.574219 C 162.332031 189.0625 161.8125 190.011719 161.8125 190.992188 L 161.8125 217.308594 C 161.8125 217.796875 161.9375 218.253906 162.179688 218.679688 C 162.425781 219.105469 162.761719 219.4375 163.183594 219.683594 L 185.980469 232.839844 C 186.40625 233.085938 186.863281 233.207031 187.351562 233.207031 C 187.84375 233.207031 188.300781 233.085938 188.722656 232.839844 L 211.519531 219.683594 C 211.945312 219.4375 212.277344 219.105469 212.523438 218.679688 C 212.769531 218.253906 212.890625 217.796875 212.890625 217.308594 L 212.890625 151.703125 C 212.890625 150.707031 212.34375 149.769531 211.472656 149.285156 L 197.90625 141.695312 C 197.691406 141.578125 197.457031 141.558594 197.21875 141.558594 Z M 50.570312 174.410156 C 50.136719 174.425781 49.730469 174.503906 49.339844 174.730469 L 26.542969 187.886719 C 26.117188 188.128906 25.78125 188.464844 25.539062 188.890625 C 25.292969 189.3125 25.171875 189.773438 25.171875 190.261719 L 25.21875 225.578125 C 25.21875 226.070312 25.472656 226.523438 25.90625 226.765625 C 26.328125 227.019531 26.851562 227.019531 27.273438 226.765625 L 40.796875 218.996094 C 41.652344 218.488281 42.214844 217.601562 42.214844 216.621094 L 42.214844 200.128906 C 42.214844 199.144531 42.730469 198.242188 43.585938 197.753906 L 49.339844 194.417969 C 49.765625 194.171875 50.222656 194.050781 50.710938 194.054688 C 51.203125 194.050781 51.660156 194.171875 52.082031 194.417969 L 57.835938 197.753906 C 58.6875 198.242188 59.207031 199.144531 59.207031 200.128906 L 59.207031 216.617188 C 59.207031 217.601562 59.777344 218.492188 60.621094 218.992188 L 74.144531 226.761719 C 74.570312 227.015625 75.09375 227.015625 75.515625 226.761719 C 75.933594 226.519531 76.199219 226.0625 76.199219 225.574219 L 76.246094 190.257812 C 76.25 189.769531 76.128906 189.3125 75.882812 188.886719 C 75.636719 188.460938 75.300781 188.128906 74.875 187.882812 L 52.078125 174.730469 C 51.695312 174.503906 51.285156 174.429688 50.847656 174.410156 Z M 255.417969 174.730469 C 254.929688 174.726562 254.472656 174.851562 254.046875 175.09375 L 231.25 188.253906 C 230.398438 188.746094 229.878906 189.644531 229.878906 190.628906 L 229.878906 216.941406 C 229.878906 217.929688 230.4375 218.828125 231.296875 219.316406 L 253.910156 232.207031 C 254.742188 232.683594 255.761719 232.71875 256.605469 232.25 L 270.308594 224.621094 C 270.746094 224.378906 271.039062 223.929688 271.039062 223.433594 C 271.039062 222.9375 270.785156 222.492188 270.355469 222.246094 L 247.417969 209.089844 C 246.992188 208.84375 246.691406 208.347656 246.691406 207.855469 L 246.691406 199.625 C 246.691406 199.132812 246.996094 198.683594 247.417969 198.4375 L 254.546875 194.328125 C 254.96875 194.082031 255.492188 194.082031 255.917969 194.328125 L 263.0625 198.4375 C 263.519531 198.703125 263.746094 199.097656 263.746094 199.625 L 263.746094 206.113281 C 263.746094 206.640625 263.972656 207.039062 264.429688 207.300781 C 264.859375 207.546875 265.375 207.546875 265.800781 207.300781 L 279.460938 199.351562 C 280.308594 198.859375 280.832031 197.957031 280.832031 196.976562 L 280.832031 190.628906 C 280.832031 190.136719 280.710938 189.679688 280.464844 189.253906 C 280.21875 188.832031 279.886719 188.496094 279.460938 188.25 L 256.800781 175.09375 C 256.378906 174.847656 255.921875 174.726562 255.429688 174.730469 Z M 187.257812 194.375 C 187.386719 194.375 187.507812 194.40625 187.621094 194.464844 L 195.433594 198.988281 C 195.644531 199.109375 195.800781 199.335938 195.800781 199.582031 L 195.800781 208.628906 C 195.800781 208.875 195.648438 209.097656 195.433594 209.222656 L 187.621094 213.742188 C 187.410156 213.863281 187.148438 213.863281 186.9375 213.742188 L 179.125 209.222656 C 178.914062 209.097656 178.757812 208.871094 178.757812 208.628906 L 178.757812 199.585938 C 178.757812 199.339844 178.914062 199.113281 179.125 198.992188 L 186.9375 194.46875 C 187.042969 194.40625 187.136719 194.378906 187.257812 194.378906 Z M 187.257812 194.375 " fill-opacity="1" fill-rule="nonzero"/></g><path fill="#83cd29" d="M 119.050781 174.59375 C 118.5625 174.589844 118.105469 174.714844 117.679688 174.957031 L 94.882812 188.070312 C 94.03125 188.5625 93.511719 189.507812 93.511719 190.492188 L 93.511719 216.804688 C 93.511719 217.292969 93.632812 217.75 93.878906 218.175781 C 94.125 218.601562 94.457031 218.933594 94.882812 219.179688 L 117.679688 232.335938 C 118.101562 232.582031 118.558594 232.707031 119.050781 232.707031 C 119.539062 232.707031 119.996094 232.582031 120.421875 232.335938 L 143.21875 219.179688 C 143.640625 218.933594 143.976562 218.601562 144.222656 218.175781 C 144.464844 217.75 144.589844 217.292969 144.585938 216.804688 L 144.585938 190.492188 C 144.585938 189.507812 144.070312 188.5625 143.214844 188.070312 L 120.417969 174.960938 C 119.996094 174.714844 119.539062 174.589844 119.046875 174.59375 Z M 255.375 198.074219 C 255.28125 198.074219 255.183594 198.074219 255.097656 198.117188 L 250.714844 200.675781 C 250.535156 200.777344 250.441406 200.929688 250.441406 201.132812 L 250.441406 206.160156 C 250.441406 206.347656 250.550781 206.523438 250.714844 206.617188 L 255.097656 209.128906 C 255.265625 209.234375 255.433594 209.234375 255.601562 209.128906 L 259.988281 206.617188 C 260.148438 206.523438 260.261719 206.347656 260.261719 206.160156 L 260.261719 201.132812 C 260.261719 200.945312 260.148438 200.773438 259.988281 200.675781 L 255.601562 198.117188 C 255.519531 198.070312 255.464844 198.074219 255.371094 198.074219 Z M 255.375 198.074219 " fill-opacity="1" fill-rule="nonzero"/></svg>