<svg xmlns="http://www.w3.org/2000/svg" xmlns:xlink="http://www.w3.org/1999/xlink" width="500" zoomAndPan="magnify" viewBox="0 0 375 374.999991" height="500" preserveAspectRatio="xMidYMid meet" version="1.0"><defs><clipPath id="cd1b3d3045"><path d="M 0 54.367188 L 261 54.367188 L 261 320.617188 L 0 320.617188 Z M 0 54.367188 " clip-rule="nonzero"/></clipPath><clipPath id="83a1347c83"><path d="M 133.574219 54.367188 L 375 54.367188 L 375 320.617188 L 133.574219 320.617188 Z M 133.574219 54.367188 " clip-rule="nonzero"/></clipPath></defs><g clip-path="url(#cd1b3d3045)"><path fill="#ffffff" d="M 96.480469 165.851562 L 72.707031 259.707031 C 78.300781 260.496094 82.859375 260.984375 86.265625 260.984375 C 91.433594 260.984375 97.878906 260.070312 105.480469 258.371094 L 103.65625 267.0625 C 95.8125 268.703125 89.609375 269.492188 85.292969 269.492188 C 80.671875 269.492188 73.859375 269.066406 65.042969 268.21875 C 57.199219 267.425781 50.632812 266.941406 45.40625 266.941406 C 35.980469 266.941406 25.15625 268.277344 12.753906 271.011719 L 15.367188 261.164062 C 28.320312 257.882812 36.710938 254.660156 40.601562 251.5 C 46.5 246.453125 51 237.578125 54.160156 224.816406 L 78.847656 126.035156 C 81.949219 113.453125 83.46875 106.035156 83.46875 103.785156 C 83.46875 101.71875 82.738281 100.078125 81.277344 98.984375 C 79.820312 97.890625 76.960938 97.464844 72.523438 97.523438 L 74.773438 89.015625 C 86.628906 88.953125 100.859375 86.765625 117.398438 82.511719 C 115.9375 87.007812 114.113281 93.574219 111.863281 102.328125 L 98.546875 154.421875 C 104.261719 155.578125 108.945312 156.246094 112.835938 156.246094 C 127.613281 156.246094 140.199219 151.078125 150.65625 140.746094 C 161.113281 130.410156 166.40625 118.191406 166.40625 104.089844 C 166.40625 93.148438 162.148438 84.089844 153.816406 77.039062 C 145.425781 69.988281 133.996094 66.460938 119.523438 66.460938 C 101.039062 66.460938 82.980469 70.960938 65.289062 79.835938 C 47.65625 88.773438 34.398438 99.894531 25.582031 113.148438 C 16.765625 126.398438 12.386719 140.320312 12.386719 154.789062 C 12.386719 165.730469 16.886719 175.152344 25.949219 182.992188 C 30.570312 186.882812 33.367188 189.679688 34.460938 191.503906 C 35.554688 193.328125 36.101562 195.148438 36.101562 197.09375 C 36.101562 199.527344 35.191406 201.714844 33.367188 203.539062 C 31.542969 205.363281 29.292969 206.273438 26.675781 206.273438 C 20.230469 206.273438 14.636719 202.566406 9.652344 195.148438 C 3.207031 185.484375 0.046875 173.632812 0.046875 159.40625 C 0.046875 141.292969 5.03125 124.394531 15.0625 108.648438 C 25.097656 92.964844 40.238281 80.078125 60.605469 69.746094 C 80.976562 59.410156 102.316406 54.367188 124.875 54.367188 C 145.851562 54.367188 163.183594 58.316406 176.621094 66.21875 C 190.179688 74.0625 196.988281 85.792969 196.988281 101.234375 C 196.988281 115.699219 190.726562 129.195312 178.324219 141.65625 C 165.917969 154.117188 148.832031 162.203125 127.003906 165.730469 C 132.414062 176.609375 135.882812 183.90625 137.402344 187.613281 C 139.832031 193.933594 143.664062 204.695312 148.710938 219.707031 C 160.566406 254.964844 172.851562 279.886719 185.617188 294.355469 C 195.042969 304.933594 205.257812 310.160156 216.203125 310.160156 C 227.511719 310.160156 234.75 305.113281 237.910156 294.84375 C 239.796875 288.398438 241.558594 284.445312 243.261719 282.925781 C 245.511719 280.859375 248.066406 279.765625 250.863281 279.765625 C 253.660156 279.765625 256.089844 280.738281 258.035156 282.746094 C 259.921875 284.75 260.953125 287.183594 260.953125 289.980469 C 260.953125 297.335938 257.003906 304.265625 248.914062 310.769531 C 240.949219 317.394531 230.613281 320.617188 217.964844 320.617188 C 206.535156 320.617188 195.589844 317.820312 185.191406 312.289062 C 174.796875 306.757812 164.640625 297.699219 154.792969 285.117188 C 144.941406 272.53125 136.429688 257.457031 129.070312 239.769531 C 125.421875 230.894531 120.132812 214.722656 113.078125 191.199219 C 108.824219 176.792969 106.207031 168.222656 105.113281 165.425781 L 100.796875 165.058594 C 99.886719 165.605469 98.425781 165.667969 96.480469 165.851562 Z M 96.480469 165.851562 " fill-opacity="1" fill-rule="nonzero"/></g><g clip-path="url(#83a1347c83)"><path fill="#ffffff" d="M 208.40625 174.746094 C 197.101562 174.027344 187.78125 183.347656 188.496094 194.65625 C 189.085938 203.976562 196.652344 211.542969 205.972656 212.132812 C 217.277344 212.847656 226.597656 203.527344 225.882812 192.21875 C 225.292969 182.898438 217.730469 175.332031 208.40625 174.746094 Z M 374.988281 309.210938 L 373.371094 320.535156 C 368.113281 320.535156 363.664062 320.132812 358.410156 319.726562 C 328.886719 317.703125 313.117188 310.023438 295.324219 284.949219 C 280.363281 264.328125 265.804688 238.851562 252.867188 218.230469 C 249.121094 212.238281 245.980469 208.503906 241.644531 206.21875 C 239.03125 204.84375 238.296875 201.464844 240.152344 199.164062 C 241.027344 198.082031 241.871094 196.976562 242.679688 195.859375 C 246.527344 190.566406 251.832031 186.515625 257.859375 183.960938 C 261.871094 182.257812 265.421875 180.089844 268.636719 177.386719 C 284.40625 165.660156 290.875 149.484375 290.875 127.648438 C 290.875 84.382812 262.167969 68.609375 231.027344 68.609375 C 219.300781 68.609375 142.425781 68.398438 133.574219 68.140625 L 133.574219 54.457031 L 236.691406 54.457031 C 266.210938 54.457031 286.023438 58.09375 301.390625 68.203125 C 317.96875 78.71875 328.886719 96.917969 328.886719 121.582031 C 328.886719 156.359375 306.648438 178.195312 276.722656 191.136719 C 284.003906 203.671875 301.390625 230.765625 313.523438 248.960938 C 328.484375 270.394531 336.167969 280.503906 345.46875 290.609375 C 356.386719 302.339844 365.6875 306.789062 374.988281 309.210938 " fill-opacity="1" fill-rule="nonzero"/></g></svg>