<svg xmlns="http://www.w3.org/2000/svg" xmlns:xlink="http://www.w3.org/1999/xlink" width="1080" zoomAndPan="magnify" viewBox="0 0 810 809.999993" height="1080" preserveAspectRatio="xMidYMid meet" version="1.0"><defs><clipPath id="512944eceb"><path d="M 3.039062 0 L 810 0 L 810 810 L 3.039062 810 Z M 3.039062 0 " clip-rule="nonzero"/></clipPath></defs><path fill="#000000" d="M 406.511719 676.335938 L 406.410156 676.335938 C 405.402344 676.335938 404.425781 676.335938 403.417969 676.300781 L 402.777344 676.300781 C 401.800781 676.300781 400.824219 676.265625 399.847656 676.234375 L 399.144531 676.234375 C 398.167969 676.199219 397.191406 676.164062 396.214844 676.132812 L 395.675781 676.097656 C 394.835938 676.066406 393.960938 676.03125 393.121094 675.996094 L 392.34375 675.964844 C 391.4375 675.929688 390.527344 675.863281 389.621094 675.792969 L 388.675781 675.761719 C 387.800781 675.695312 386.894531 675.625 386.019531 675.558594 L 383.058594 675.320312 L 381.8125 675.21875 L 379.59375 674.984375 L 378.28125 674.847656 C 377.503906 674.78125 376.765625 674.714844 376.023438 674.613281 L 373.265625 674.308594 C 372.425781 674.171875 371.582031 674.070312 370.707031 673.96875 L 369.765625 673.835938 C 367.882812 673.597656 366.03125 673.292969 364.148438 673.023438 L 363.945312 672.988281 C 306.402344 663.832031 254.882812 636.429688 215.515625 596.894531 C 204.207031 585.507812 193.878906 573.175781 184.722656 559.929688 L 178.667969 551.617188 L 179.070312 551.484375 C 174.496094 544.320312 170.253906 536.953125 166.351562 529.351562 L 166.21875 529.046875 C 165.878906 528.4375 165.578125 527.828125 165.273438 527.1875 L 164.667969 526.003906 L 164.097656 524.824219 C 163.761719 524.179688 163.457031 523.539062 163.15625 522.898438 L 162.851562 522.320312 C 162.449219 521.445312 162.042969 520.597656 161.675781 519.753906 L 161.640625 519.6875 C 145.421875 484.882812 136.367188 446.023438 136.367188 405.070312 C 136.367188 403.921875 136.402344 402.773438 136.402344 401.660156 L 136.4375 400.476562 C 136.4375 399.734375 136.4375 398.988281 136.46875 398.246094 L 136.503906 396.792969 C 136.539062 396.152344 136.539062 395.476562 136.570312 394.832031 L 136.707031 391.453125 L 136.90625 388.074219 L 137.144531 384.730469 L 137.414062 381.386719 L 137.582031 379.492188 L 137.714844 378.074219 L 137.917969 376.113281 L 138.050781 374.796875 L 138.285156 372.734375 L 138.421875 371.519531 C 138.523438 370.808594 138.625 370.101562 138.691406 369.390625 L 138.859375 368.273438 C 138.960938 367.53125 139.0625 366.789062 139.160156 366.046875 L 139.296875 365.066406 C 139.429688 364.289062 139.53125 363.511719 139.667969 362.734375 L 139.800781 361.921875 C 139.933594 361.078125 140.070312 360.234375 140.203125 359.421875 L 140.304688 358.78125 C 140.441406 357.902344 140.609375 356.988281 140.777344 356.109375 L 140.84375 355.738281 C 141.011719 354.757812 141.214844 353.78125 141.382812 352.832031 L 141.417969 352.765625 C 148.046875 318.703125 161 286.910156 179.070312 258.695312 L 178.667969 258.527344 L 184.523438 250.484375 C 193.742188 237.171875 204.105469 224.703125 215.511719 213.28125 C 234.121094 194.5625 255.457031 178.613281 278.84375 165.976562 L 279.179688 165.808594 C 280.019531 165.367188 280.863281 164.929688 281.703125 164.488281 L 282.882812 163.878906 L 284.261719 163.136719 C 284.898438 162.800781 285.574219 162.496094 286.210938 162.15625 L 286.785156 161.886719 C 322.890625 143.910156 363.539062 133.808594 406.511719 133.808594 L 406.644531 133.808594 C 407.621094 133.808594 408.632812 133.839844 409.605469 133.839844 L 410.246094 133.839844 C 411.222656 133.875 412.199219 133.875 413.175781 133.910156 L 413.914062 133.910156 C 414.890625 133.941406 415.867188 133.976562 416.84375 134.011719 L 417.347656 134.042969 C 418.1875 134.078125 419.0625 134.113281 419.902344 134.144531 L 420.679688 134.179688 C 421.585938 134.246094 422.496094 134.28125 423.402344 134.347656 L 424.347656 134.414062 C 425.253906 134.449219 426.128906 134.515625 427.003906 134.585938 L 430 134.820312 L 431.246094 134.957031 L 433.429688 135.160156 L 434.742188 135.292969 C 435.519531 135.363281 436.257812 135.464844 437.03125 135.53125 L 439.757812 135.867188 C 440.597656 135.96875 441.472656 136.070312 442.316406 136.171875 L 443.257812 136.308594 C 445.140625 136.578125 446.992188 136.847656 448.878906 137.152344 L 449.078125 137.1875 C 506.621094 146.308594 558.140625 173.714844 597.542969 213.28125 C 608.847656 224.632812 619.144531 237 628.332031 250.214844 L 634.355469 258.523438 L 633.953125 258.695312 C 638.527344 265.824219 642.769531 273.222656 646.671875 280.792969 L 646.804688 281.097656 C 647.144531 281.703125 647.445312 282.347656 647.75 282.953125 L 648.960938 285.320312 C 649.261719 285.960938 649.566406 286.605469 649.867188 287.246094 L 650.171875 287.855469 C 650.574219 288.699219 650.980469 289.542969 651.382812 290.390625 L 651.417969 290.457031 C 667.601562 325.292969 676.65625 364.117188 676.65625 405.070312 C 676.65625 406.21875 676.65625 407.367188 676.621094 408.515625 L 676.621094 409.699219 C 676.585938 410.445312 676.585938 411.1875 676.554688 411.929688 L 676.519531 413.347656 C 676.484375 414.023438 676.484375 414.667969 676.453125 415.308594 L 676.316406 418.6875 L 676.117188 422.066406 L 675.914062 425.414062 L 675.644531 428.757812 L 675.476562 430.648438 L 675.34375 432.070312 L 675.140625 434.027344 L 674.972656 435.347656 L 674.738281 437.40625 L 674.601562 438.625 C 674.5 439.332031 674.433594 440.042969 674.332031 440.753906 L 674.199219 441.867188 C 674.097656 442.609375 673.960938 443.355469 673.863281 444.097656 L 673.726562 445.078125 C 673.625 445.855469 673.492188 446.632812 673.355469 447.410156 L 673.257812 448.253906 C 673.121094 449.066406 672.988281 449.910156 672.820312 450.753906 L 672.71875 451.363281 C 672.582031 452.242188 672.414062 453.152344 672.246094 454.03125 L 672.179688 454.4375 C 672.011719 455.382812 671.84375 456.363281 671.640625 457.308594 L 671.640625 457.378906 C 665.011719 491.472656 652.023438 523.265625 633.953125 551.480469 L 634.355469 551.617188 L 628.535156 559.660156 C 619.316406 572.972656 608.917969 585.441406 597.542969 596.894531 C 578.902344 615.582031 557.566406 631.5625 534.179688 644.167969 L 533.84375 644.335938 C 533.035156 644.773438 532.195312 645.214844 531.351562 645.652344 L 530.175781 646.296875 L 528.761719 647.003906 C 528.121094 647.34375 527.484375 647.648438 526.808594 647.984375 L 526.238281 648.289062 C 490.132812 666.230469 449.484375 676.335938 406.511719 676.335938 Z M 233.683594 578.613281 C 271.710938 616.761719 322.152344 642.445312 378.449219 648.898438 C 379.019531 648.964844 379.558594 649.03125 380.097656 649.066406 C 348.9375 624.972656 322.488281 595.003906 302.464844 560.808594 C 298.863281 554.65625 295.5 548.40625 292.335938 542.019531 C 266.761719 547.324219 242.332031 554.355469 219.382812 562.9375 C 223.925781 568.375 228.703125 573.613281 233.683594 578.613281 Z M 190.410156 519.820312 L 190.679688 520.328125 C 191.015625 520.96875 191.351562 521.613281 191.691406 522.253906 C 192.027344 522.863281 192.363281 523.46875 192.699219 524.078125 L 193.035156 524.6875 C 196.234375 530.429688 199.664062 536.039062 203.300781 541.480469 C 227.863281 531.882812 254.078125 523.941406 281.636719 517.929688 C 269.386719 486.773438 262.050781 453.121094 260.605469 417.980469 L 162.449219 417.980469 C 164.332031 454.640625 174.226562 489.171875 190.410156 519.820312 Z M 233.683594 231.527344 C 228.703125 236.5625 223.925781 241.800781 219.382812 247.207031 C 242.332031 255.789062 266.761719 262.851562 292.335938 268.15625 C 295.5 261.734375 298.863281 255.484375 302.464844 249.367188 C 322.519531 215.140625 348.9375 185.167969 380.128906 161.074219 L 378.816406 161.210938 C 377.136719 161.414062 375.417969 161.617188 373.738281 161.851562 L 373.230469 161.921875 C 372.15625 162.054688 371.078125 162.222656 370.035156 162.359375 C 369.292969 162.460938 368.554688 162.597656 367.8125 162.699219 C 366.839844 162.867188 365.863281 163.035156 364.886719 163.203125 L 364.347656 163.304688 C 362.699219 163.574219 361.050781 163.878906 359.402344 164.21875 L 358.898438 164.320312 C 357.953125 164.488281 357.011719 164.691406 356.070312 164.894531 L 355.566406 164.996094 C 353.949219 165.332031 352.335938 165.703125 350.71875 166.078125 L 350.179688 166.210938 C 349.207031 166.449219 348.230469 166.683594 347.253906 166.921875 C 346.515625 167.089844 345.773438 167.292969 345.03125 167.460938 C 344.058594 167.734375 343.082031 168.003906 342.070312 168.273438 L 341.632812 168.410156 C 339.984375 168.847656 338.371094 169.320312 336.753906 169.792969 L 336.519531 169.859375 C 335.476562 170.164062 334.46875 170.46875 333.421875 170.808594 L 333.253906 170.875 C 331.574219 171.382812 329.925781 171.921875 328.277344 172.496094 L 328.242188 172.496094 C 317.105469 176.28125 306.300781 180.84375 295.9375 186.148438 C 288.367188 190 281.0625 194.222656 273.996094 198.820312 L 273.828125 198.921875 C 273.089844 199.425781 272.347656 199.898438 271.609375 200.40625 L 269.65625 201.691406 C 268.949219 202.199219 268.210938 202.671875 267.503906 203.179688 L 267.402344 203.246094 C 255.320312 211.660156 244.050781 221.121094 233.683594 231.527344 Z M 203.300781 268.664062 C 185.496094 295.390625 172.746094 325.800781 166.484375 358.578125 L 166.453125 358.746094 C 166.285156 359.65625 166.117188 360.570312 165.949219 361.480469 L 165.878906 361.886719 C 165.746094 362.734375 165.578125 363.578125 165.441406 364.421875 L 165.339844 364.996094 C 165.207031 365.808594 165.105469 366.585938 164.972656 367.394531 L 164.871094 368.105469 C 164.734375 368.847656 164.632812 369.589844 164.535156 370.367188 L 164.433594 371.179688 C 164.332031 371.890625 164.230469 372.632812 164.128906 373.34375 L 164.027344 374.253906 C 163.925781 374.929688 163.859375 375.640625 163.757812 376.316406 L 163.660156 377.328125 L 163.421875 379.324219 L 163.320312 380.40625 C 163.253906 381.046875 163.222656 381.6875 163.152344 382.332031 L 163.050781 383.445312 L 162.78125 386.519531 C 162.75 387.164062 162.714844 387.804688 162.648438 388.414062 L 162.582031 389.59375 C 162.546875 390.238281 162.515625 390.84375 162.480469 391.488281 L 162.445312 392.164062 L 260.605469 392.164062 C 262.050781 357.023438 269.386719 323.367188 281.636719 292.214844 C 254.074219 286.199219 227.863281 278.292969 203.296875 268.664062 Z M 579.339844 231.527344 C 541.347656 193.378906 490.871094 167.734375 434.574219 161.246094 C 434.039062 161.175781 433.464844 161.144531 432.925781 161.074219 C 464.085938 185.167969 490.535156 215.140625 510.558594 249.367188 C 514.160156 255.484375 517.523438 261.734375 520.6875 268.15625 C 546.292969 262.851562 570.722656 255.789062 593.671875 247.207031 C 589.097656 241.800781 584.320312 236.5625 579.339844 231.527344 Z M 622.644531 290.320312 L 622.378906 289.816406 C 622.039062 289.171875 621.671875 288.53125 621.332031 287.886719 C 620.996094 287.3125 620.695312 286.707031 620.359375 286.132812 L 619.988281 285.457031 C 616.792969 279.710938 613.359375 274.101562 609.726562 268.664062 C 585.195312 278.257812 558.945312 286.199219 531.386719 292.214844 C 543.636719 323.367188 550.972656 357.023438 552.417969 392.164062 L 650.574219 392.164062 C 648.691406 355.5 638.796875 320.96875 622.644531 290.320312 Z M 579.339844 578.613281 C 584.320312 573.613281 589.097656 568.375 593.671875 562.9375 C 570.722656 554.355469 546.292969 547.324219 520.6875 542.019531 C 517.523438 548.40625 514.160156 554.65625 510.558594 560.808594 C 490.535156 595.003906 464.085938 624.972656 432.925781 649.066406 L 434.207031 648.929688 C 435.921875 648.761719 437.605469 648.527344 439.285156 648.324219 L 439.792969 648.253906 C 440.867188 648.085938 441.945312 647.953125 443.023438 647.78125 C 443.761719 647.679688 444.46875 647.546875 445.210938 647.445312 C 446.21875 647.277344 447.195312 647.105469 448.171875 646.9375 L 448.710938 646.871094 C 450.359375 646.566406 451.972656 646.261719 453.621094 645.957031 L 454.160156 645.855469 C 455.101562 645.652344 456.011719 645.449219 456.953125 645.28125 L 457.457031 645.148438 C 459.074219 644.808594 460.6875 644.4375 462.304688 644.066406 L 462.875 643.929688 C 463.851562 643.726562 464.828125 643.492188 465.804688 643.222656 C 466.511719 643.050781 467.25 642.847656 467.992188 642.679688 C 468.964844 642.410156 469.976562 642.140625 470.953125 641.871094 L 471.390625 641.769531 C 473.039062 641.292969 474.652344 640.855469 476.269531 640.347656 L 476.503906 640.28125 C 477.546875 639.976562 478.589844 639.671875 479.601562 639.335938 L 479.769531 639.300781 C 481.449219 638.761719 483.097656 638.21875 484.78125 637.644531 C 495.953125 633.859375 506.722656 629.300781 517.121094 623.996094 C 524.65625 620.140625 531.960938 615.917969 539.027344 611.324219 L 539.226562 611.1875 C 539.96875 610.714844 540.707031 610.242188 541.414062 609.769531 L 543.367188 608.453125 C 544.074219 607.976562 544.8125 607.472656 545.554688 606.964844 L 545.621094 606.898438 C 557.703125 598.484375 568.972656 589.023438 579.339844 578.613281 Z M 609.726562 541.480469 C 627.558594 514.753906 640.277344 484.339844 646.539062 451.597656 L 646.570312 451.398438 C 646.738281 450.484375 646.910156 449.570312 647.078125 448.660156 L 647.144531 448.253906 C 647.3125 447.410156 647.445312 446.566406 647.582031 445.71875 L 647.683594 445.144531 C 647.816406 444.335938 647.953125 443.558594 648.050781 442.746094 L 648.152344 442.035156 C 648.289062 441.292969 648.390625 440.550781 648.488281 439.808594 L 648.625 438.960938 C 648.691406 438.253906 648.792969 437.542969 648.894531 436.800781 L 649.027344 435.886719 C 649.097656 435.210938 649.195312 434.5 649.265625 433.824219 L 649.363281 432.8125 C 649.464844 432.171875 649.53125 431.496094 649.601562 430.820312 L 649.699219 429.769531 C 649.769531 429.09375 649.835938 428.453125 649.871094 427.8125 L 649.96875 426.695312 C 650.039062 426.054688 650.105469 425.414062 650.136719 424.769531 L 650.238281 423.621094 C 650.273438 422.980469 650.308594 422.371094 650.375 421.730469 L 650.441406 420.546875 C 650.476562 419.90625 650.507812 419.296875 650.542969 418.65625 L 650.574219 417.980469 L 552.417969 417.980469 C 550.972656 453.121094 543.636719 486.773438 531.386719 517.929688 C 558.945312 523.941406 585.195312 531.882812 609.726562 541.480469 Z M 307.3125 512.960938 C 335.105469 508.265625 364.011719 505.460938 393.65625 504.851562 L 393.65625 417.980469 L 286.347656 417.980469 C 287.863281 451.53125 295.164062 483.53125 307.3125 512.960938 Z M 393.65625 530.667969 C 367.882812 531.242188 342.8125 533.472656 318.71875 537.222656 C 320.601562 540.804688 322.554688 544.316406 324.574219 547.765625 C 342.476562 578.34375 365.964844 605.242188 393.65625 627.035156 Z M 419.367188 504.851562 C 449.011719 505.460938 477.917969 508.265625 505.710938 512.960938 C 517.859375 483.53125 525.160156 451.53125 526.675781 417.980469 L 419.367188 417.980469 Z M 494.339844 537.222656 C 470.210938 533.472656 445.140625 531.242188 419.367188 530.667969 L 419.367188 627.035156 C 447.058594 605.242188 470.546875 578.34375 488.449219 547.765625 C 490.46875 544.316406 492.453125 540.804688 494.339844 537.222656 Z M 318.71875 272.917969 C 342.8125 276.671875 367.882812 278.902344 393.65625 279.476562 L 393.65625 183.105469 C 365.964844 204.902344 342.476562 231.796875 324.574219 262.378906 C 322.554688 265.859375 320.601562 269.371094 318.71875 272.917969 Z M 393.65625 305.289062 C 364.011719 304.683594 335.105469 301.878906 307.3125 297.179688 C 295.164062 326.613281 287.863281 358.609375 286.347656 392.164062 L 393.65625 392.164062 Z M 419.367188 279.476562 C 445.140625 278.902344 470.210938 276.671875 494.339844 272.917969 C 492.453125 269.371094 490.46875 265.859375 488.449219 262.378906 C 470.546875 231.796875 447.058594 204.902344 419.367188 183.105469 Z M 505.710938 297.179688 C 477.917969 301.878906 449.011719 304.683594 419.367188 305.289062 L 419.367188 392.164062 L 526.675781 392.164062 C 525.160156 358.609375 517.859375 326.613281 505.710938 297.179688 Z M 505.710938 297.179688 " fill-opacity="1" fill-rule="nonzero"/><g clip-path="url(#512944eceb)"><path fill="#000000" d="M 809.910156 405.070312 C 809.910156 516.914062 764.75 618.183594 691.761719 691.507812 C 618.808594 764.761719 517.960938 810.074219 406.511719 810.074219 C 295.0625 810.074219 194.214844 764.761719 121.261719 691.507812 C 48.273438 618.183594 3.113281 516.914062 3.113281 405.070312 C 3.113281 293.226562 48.273438 191.960938 121.261719 118.636719 C 194.214844 45.378906 295.0625 0.101562 406.511719 0.101562 L 406.511719 0 C 517.894531 0 618.742188 45.347656 691.761719 118.636719 C 764.71875 191.890625 809.839844 293.160156 809.839844 405.070312 Z M 661.546875 661.164062 C 726.792969 595.609375 767.171875 505.089844 767.171875 405.070312 L 767.273438 405.070312 C 767.273438 305.121094 726.859375 214.566406 661.546875 148.980469 C 596.265625 83.460938 506.117188 42.914062 406.511719 42.914062 L 406.511719 42.847656 C 306.976562 42.847656 216.792969 83.394531 151.476562 148.980469 C 86.230469 214.53125 45.851562 305.054688 45.851562 405.070312 C 45.851562 505.089844 86.230469 595.609375 151.476562 661.164062 C 216.792969 726.75 306.976562 767.332031 406.511719 767.332031 C 506.046875 767.332031 596.230469 726.75 661.546875 661.164062 Z M 661.546875 661.164062 " fill-opacity="1" fill-rule="nonzero"/></g></svg>